<?xml version="1.0" encoding="UTF-8"?>
<svg id="BigID_next" data-name="BigID next" xmlns="http://www.w3.org/2000/svg" xmlns:xlink="http://www.w3.org/1999/xlink" viewBox="0 0 443.94 625.51">
  <defs>
    <style>
      .cls-1 {
        fill: #6753a3;
      }

      .cls-2, .cls-3, .cls-4, .cls-5 {
        fill: none;
      }

      .cls-6 {
        fill: url(#linear-gradient-5);
      }

      .cls-7 {
        fill: url(#linear-gradient-4);
      }

      .cls-8 {
        fill: url(#linear-gradient-3);
      }

      .cls-9 {
        fill: url(#linear-gradient-2);
      }

      .cls-3 {
        stroke-width: 2.24px;
      }

      .cls-3, .cls-4, .cls-5 {
        stroke: #2e2e31;
      }

      .cls-10 {
        fill: #2e2e31;
      }

      .cls-11 {
        fill: url(#linear-gradient);
      }

      .cls-12 {
        clip-path: url(#clippath-1);
      }

      .cls-13 {
        clip-path: url(#clippath-2);
      }

      .cls-14 {
        fill: #ed2069;
      }

      .cls-4 {
        stroke-width: 5.6px;
      }

      .cls-15 {
        fill: #f6884b;
      }

      .cls-16 {
        fill: #fff;
      }

      .cls-17 {
        fill: #2e2d31;
      }

      .cls-18 {
        fill: #f68749;
      }

      .cls-5 {
        stroke-width: 1.53px;
      }

      .cls-19 {
        clip-path: url(#clippath);
      }
    </style>
    <clipPath id="clippath">
      <rect class="cls-2" x="-45.7" y="-32.62" width="533.58" height="488.8"/>
    </clipPath>
    <linearGradient id="linear-gradient" x1="127.1" y1="204.31" x2="471.45" y2="117.7" gradientUnits="userSpaceOnUse">
      <stop offset=".03" stop-color="#f68749"/>
      <stop offset=".06" stop-color="#f47d4b"/>
      <stop offset=".1" stop-color="#f26354"/>
      <stop offset=".16" stop-color="#ed3961"/>
      <stop offset=".19" stop-color="#eb2069"/>
      <stop offset=".67" stop-color="#6854a3"/>
      <stop offset=".74" stop-color="#6854a3"/>
      <stop offset=".81" stop-color="#6854a3"/>
      <stop offset=".86" stop-color="#6854a3"/>
      <stop offset=".97" stop-color="#6854a3"/>
    </linearGradient>
    <linearGradient id="linear-gradient-2" x1="127.1" y1="340.66" x2="310.68" y2="340.66" gradientUnits="userSpaceOnUse">
      <stop offset="0" stop-color="#f68749"/>
      <stop offset=".28" stop-color="#f3864a"/>
      <stop offset=".45" stop-color="#eb834f"/>
      <stop offset=".58" stop-color="#dd7e58"/>
      <stop offset=".7" stop-color="#c97665"/>
      <stop offset=".8" stop-color="#af6d75"/>
      <stop offset=".9" stop-color="#906289"/>
      <stop offset=".99" stop-color="#6b55a0"/>
      <stop offset="1" stop-color="#6854a3"/>
    </linearGradient>
    <linearGradient id="linear-gradient-3" x1="9.24" y1="168.11" x2="71.65" y2="60.02" gradientUnits="userSpaceOnUse">
      <stop offset="0" stop-color="#f68749"/>
      <stop offset=".02" stop-color="#f5834a"/>
      <stop offset=".21" stop-color="#f15f55"/>
      <stop offset=".41" stop-color="#ee435d"/>
      <stop offset=".6" stop-color="#ec2f64"/>
      <stop offset=".8" stop-color="#eb2367"/>
      <stop offset="1" stop-color="#eb2069"/>
    </linearGradient>
    <linearGradient id="linear-gradient-4" x1="25.78" y1="217.22" x2="72.79" y2="147.7" gradientUnits="userSpaceOnUse">
      <stop offset="0" stop-color="#f68749"/>
      <stop offset=".2" stop-color="#f5834a"/>
      <stop offset=".4" stop-color="#f4774d"/>
      <stop offset=".59" stop-color="#f26453"/>
      <stop offset=".78" stop-color="#ef495c"/>
      <stop offset=".97" stop-color="#eb2666"/>
      <stop offset="1" stop-color="#eb2069"/>
    </linearGradient>
    <linearGradient id="linear-gradient-5" x1="186.14" y1="145.78" x2="400.78" y2="206.7" gradientUnits="userSpaceOnUse">
      <stop offset="0" stop-color="#eb2069"/>
      <stop offset=".07" stop-color="#d22973"/>
      <stop offset=".18" stop-color="#b13682"/>
      <stop offset=".29" stop-color="#96418e"/>
      <stop offset=".42" stop-color="#824997"/>
      <stop offset=".57" stop-color="#734f9d"/>
      <stop offset=".73" stop-color="#6a52a1"/>
      <stop offset="1" stop-color="#6854a3"/>
    </linearGradient>
    <clipPath id="clippath-1">
      <rect class="cls-2" x="-50.27" y="-40.17" width="543.24" height="649.46"/>
    </clipPath>
    <clipPath id="clippath-2">
      <rect class="cls-2" x="-50.27" y="-40.17" width="543.24" height="649.46"/>
    </clipPath>
  </defs>
  <g id="Grey-V">
    <g class="cls-19">
      <g>
        <path class="cls-11" d="M419.61,70.85c-10.44-8.48-23.77-16.63-39.27-24.01,3.9,11.91,7.52,24.43,10.87,37.56,4.85,18.99-23.65,26.25-28.49,7.26-5.59-21.93-11.83-41.65-18.65-59.33-10.97-3.66-22.54-6.93-34.52-9.72,32.78,44.72,19.25,111.18,77.8,100.43,19.28-3.54,24.59,25.37,5.32,28.92-123.06,22.61-47.53-138.33-176.05-138.33-71,0-86.89,56.71-86.89,112.37,0,16.09,2.63,32.58,2.63,45.07,0,43.43-26.7,75.63-67.93,85.55,3.95,7.71,8.16,15.26,12.65,22.63,28.26-5.25,50.69-20.22,67.51-42.16,11.93-15.55,35.26,2.34,23.33,17.9-19.7,25.66-44.31,42.64-73.11,50.59,3.84,5.2,7.84,10.27,11.99,15.23,16.8-6.03,29.09-11.61,38.61-16.3,14.01-6.87,33.51-20.31,49.69-20.31,7.55,0,15.7,1.85,24.14,4.37,40.07,12.09,74.33,27.57,115.32,35.26,4.64-5.45,9.1-11,13.37-16.71-114.07-22.31-195.94-81.4-195.94-191.89,0-36.42,14.16-79.03,64.98-79.03,41.11,0,54.31,27.3,65.52,59.6,23.32,67.25,53.77,88.06,124.69,87.51,9.14-35.24,13.39-72.9,12.42-112.47"/>
        <path class="cls-18" d="M169.92,380.18c16.16,11.95,33.52,22.8,52.05,32.49,13.42-7.03,37.6-22.04,38.43-22.87-4.21-1.83-7.23-3.05-9.15-3.89-15.1-6.6-30.81-14.48-47.48-15.81-4.36-.35-8.78-.09-13.01,1.07-3.9,1.06-7.62,2.68-11.26,4.42-1.87.89-3.72,1.83-5.58,2.75-.42.21-3.59,2.15-4,1.84Z"/>
        <path class="cls-9" d="M127.1,343.17c5.83,5.89,11.88,11.62,18.17,17.14l3.82-1.86c14-6.88,31.01-19.03,47.18-19.03,7.53,0,18.81,1.81,27.22,4.37,24.31,7.31,44.64,15.07,68.1,22.43,3.38-2.82,6.04-4.97,9.32-7.91,3.09-2.77,8.17-7.9,9.77-9.38-2.73-.99-27.69-9.5-33.38-11.44-12.66-4.33-24.7-9.34-37.5-13.21-12.39-3.75-26.56-9.07-39.63-9.07-14.37-.86-26.77,5.6-39.51,11.72-11.18,5.38-22.04,11.6-33.55,16.26Z"/>
        <path class="cls-8" d="M55.65,50.79c-12.15,6.29-22.72,13.05-31.34,20.06-1,39.87,3.34,77.77,12.6,113.23,12.8-6.65,13.98-19.26,13.25-43.13-1.02-33.11-2.25-61.36,5.5-90.17Z"/>
        <path class="cls-7" d="M129.45,23.78c-12.7,3.12-24.88,6.78-36.35,10.87-8.52,17.4-12.28,34.48-13.76,50.9-4.09,45.43,15.83,106.08-33.81,126.77,2.01,5.74,4.15,11.39,6.42,16.97,97.97-28.28,11.01-139.06,77.51-205.52Z"/>
        <path class="cls-6" d="M400.02,214.04l.67-1.98-3.17-.27c-36.24-2.67-65.35-11.36-88.99-26.58-20.8-13.4-34.46-30.26-41.74-51.55-2.41-7.05-4.42-13.6-6.36-19.94-8.92-29.1-15.36-50.13-42.98-50.13s-39.89,17.11-39.89,52.3c3.32,87.68,66.04,145.6,186.41,172.31l.76.16,1.12-1.85h0l.77-1.25c1.03-1.69,2.02-3.51,3-5.34.04-.08.09-.16.14-.24,1.2-2.26,2.37-4.57,3.51-6.85.56-1.12,1.12-2.23,1.67-3.33.6-1.17,1.2-2.33,1.77-3.4l.76-1.43.82-1.51h-.01s1.02-1.92,1.02-1.92l-3.45-.6c-50.06-8.81-92.4-26.11-122.45-50.02-33.85-26.94-49.77-64.15-46.04-107.61.68-7.89,5.3-10.7,9.4-10.7,4.58,0,10.03,3.5,11.91,11.31,17.05,70.93,49.83,118.29,160.42,135.2l1.16.2.81-2.16.23-.56,1.14-2.69c1.13-2.66,2.1-4.93,3.03-7.22,1.14-2.77,2.24-5.61,3.55-9.38l.3-.9.72-2.06h-.03Z"/>
      </g>
    </g>
    <g class="cls-12">
      <path class="cls-17" d="M362.83,528.09c-5.49-5.49-8.16-11.92-8.16-19.6s2.67-14.11,8.16-19.6c5.33-5.49,11.92-8.15,19.6-8.15s14.27,2.67,19.76,8.15c5.33,5.49,8,11.92,8,19.6s-2.67,14.11-8,19.6c-5.49,5.49-12.08,8.16-19.76,8.16s-14.27-2.67-19.6-8.16M410.2,466.93c-8.47-5.65-17.72-8.47-27.76-8.47-13.8,0-25.57,4.86-35.29,14.59-9.88,9.88-14.74,21.64-14.74,35.44s4.86,25.56,14.74,35.29c9.72,9.88,21.49,14.74,35.29,14.74s25.56-4.86,35.44-14.74c9.72-9.72,14.59-21.49,14.59-35.29v-83.43h-22.27v41.87ZM324.09,458.46h-22.27v100.06h22.27v-100.06ZM184.67,528.09c-5.49-5.49-8.15-11.92-8.15-19.6s2.66-14.11,8.15-19.6c5.49-5.49,11.92-8.15,19.6-8.15s14.11,2.67,19.6,8.15c5.49,5.49,8.16,11.92,8.16,19.6s-2.67,14.11-8.16,19.6c-5.49,5.49-11.92,8.16-19.6,8.16s-14.11-2.67-19.6-8.16M168.99,473.05c-9.88,9.88-14.74,21.64-14.74,35.44s4.86,25.56,14.74,35.29c9.72,9.88,21.49,14.74,35.29,14.74,10.19,0,19.29-2.82,27.6-8.47-.47,7.21-3.45,13.33-8.62,18.35-5.33,4.86-11.61,7.37-18.98,7.37-9.72,0-17.41-3.92-22.9-11.92l-18.35,12.55c9.25,13.33,24.47,21.64,41.25,21.64,13.8,0,25.56-4.86,35.44-14.59,9.72-9.88,14.59-21.64,14.59-35.44v-39.52c0-13.8-4.86-25.56-14.59-35.44-9.88-9.72-21.64-14.59-35.44-14.59s-25.56,4.86-35.29,14.59M145.46,458.46h-22.27v100.06h22.27v-100.06ZM64.07,536.25c-7.69,0-14.11-2.67-19.6-8.16-5.49-5.49-8.15-11.92-8.15-19.6s2.67-14.11,8.15-19.6c5.49-5.49,11.92-8.15,19.6-8.15s14.27,2.67,19.76,8.15c5.49,5.49,8.16,11.92,8.16,19.6s-2.67,14.11-8.16,19.6c-5.49,5.49-12.07,8.16-19.76,8.16M64.07,458.46c-10.04,0-19.29,2.82-27.76,8.47v-41.87H14.19v83.43c0,13.8,4.86,25.56,14.59,35.29,9.72,9.88,21.49,14.74,35.29,14.74s25.72-4.86,35.44-14.74c9.72-9.72,14.59-21.49,14.59-35.29s-4.86-25.56-14.59-35.44c-9.72-9.72-21.49-14.59-35.44-14.59"/>
      <path class="cls-16" d="M329.09,605.78h17.04v-2.19h-17.04c-2.56,0-4.93-.49-7.12-1.46-2.19-.97-3.91-2.3-5.18-3.98-1.26-1.68-1.9-3.51-1.9-5.47s.63-3.79,1.9-5.47c1.27-1.68,2.99-3.01,5.18-3.98,2.19-.97,4.56-1.46,7.12-1.46h17.04v-2.19h-17.04c-4.72,0-8.73,1.28-12.06,3.83-3.32,2.56-4.99,5.64-4.99,9.27s1.66,6.71,4.99,9.27c3.32,2.56,7.34,3.83,12.06,3.83M263.91,592.68v13.1h2.85v-13.1c0-1.96.63-3.79,1.9-5.47,1.26-1.68,2.99-3.01,5.18-3.98,2.19-.97,4.56-1.46,7.12-1.46s4.93.49,7.12,1.46c2.19.97,3.91,2.3,5.18,3.98,1.26,1.68,1.9,3.51,1.9,5.47v13.1h2.85v-13.1c0-3.63-1.66-6.71-4.99-9.27-3.32-2.56-7.34-3.83-12.06-3.83s-8.74,1.28-12.06,3.83c-3.32,2.56-4.98,5.64-4.98,9.27"/>
      <path class="cls-4" d="M329.09,605.78h17.04v-2.19h-17.04c-2.56,0-4.93-.49-7.12-1.46-2.19-.97-3.91-2.3-5.18-3.98-1.26-1.68-1.9-3.51-1.9-5.47s.63-3.79,1.9-5.47c1.27-1.68,2.99-3.01,5.18-3.98,2.19-.97,4.56-1.46,7.12-1.46h17.04v-2.19h-17.04c-4.72,0-8.73,1.28-12.06,3.83-3.32,2.56-4.99,5.64-4.99,9.27s1.66,6.71,4.99,9.27c3.32,2.56,7.34,3.83,12.06,3.83ZM263.91,592.68v13.1h2.85v-13.1c0-1.96.63-3.79,1.9-5.47,1.26-1.68,2.99-3.01,5.18-3.98,2.19-.97,4.56-1.46,7.12-1.46s4.93.49,7.12,1.46c2.19.97,3.91,2.3,5.18,3.98,1.26,1.68,1.9,3.51,1.9,5.47v13.1h2.85v-13.1c0-3.63-1.66-6.71-4.99-9.27-3.32-2.56-7.34-3.83-12.06-3.83s-8.74,1.28-12.06,3.83c-3.32,2.56-4.98,5.64-4.98,9.27Z"/>
      <path class="cls-17" d="M333.59,596.03c1.87,0,3.39-1.39,3.39-3.1s-1.52-3.11-3.39-3.11-3.39,1.39-3.39,3.11,1.52,3.1,3.39,3.1"/>
    </g>
    <path class="cls-10" d="M400.79,577.83v4.66h12.2v25.14h6.15v-19.41h-.05v-10.4h-18.3ZM424.61,582.49h6.73v-4.66h-6.73v4.66Z"/>
    <g class="cls-13">
      <path class="cls-3" d="M424.61,582.49h6.73v-4.66h-6.73v4.66ZM419.09,577.83h-18.3v4.66h12.2v25.14h6.15v-19.41h-.05v-10.4Z"/>
      <path class="cls-10" d="M384.23,608.53h6.34c.5,0,.75-.18.75-.54,0-.24-.08-.44-.25-.59l-8.17-9.45c-.17-.21-.38-.32-.63-.32-.3,0-.64.17-1.04.5-.4.33-.94.9-1.63,1.69-.69.8-1.14,1.32-1.35,1.56-.3.3-.44.6-.44.91,0,.21.12.48.38.81l4.27,4.93c.29.33.88.5,1.76.5M357.66,608.53h6.34c.88,0,1.49-.16,1.82-.5l26.01-30.01c.17-.21.25-.44.25-.68,0-.33-.21-.5-.63-.5l-6.28.05c-.59,0-1.01.02-1.29.07-.27.04-.47.14-.6.29l-9.17,10.58-9.11-10.58c-.21-.24-.67-.36-1.38-.36h-.38l-6.47-.05c-.42,0-.63.17-.63.5,0,.24.08.47.25.68l13.13,15.09-12.37,14.28c-.17.15-.25.35-.25.59,0,.36.25.54.75.54"/>
      <path class="cls-5" d="M384.23,608.53h6.34c.5,0,.75-.18.75-.54,0-.24-.08-.44-.25-.59l-8.17-9.45c-.17-.21-.38-.32-.63-.32-.3,0-.64.17-1.04.5-.4.33-.94.9-1.63,1.69-.69.8-1.14,1.32-1.35,1.56-.3.3-.44.6-.44.91,0,.21.12.48.38.81l4.27,4.93c.29.33.88.5,1.76.5ZM357.66,608.53h6.34c.88,0,1.49-.16,1.82-.5l26.01-30.01c.17-.21.25-.44.25-.68,0-.33-.21-.5-.63-.5l-6.28.05c-.59,0-1.01.02-1.29.07-.27.04-.47.14-.6.29l-9.17,10.58-9.11-10.58c-.21-.24-.67-.36-1.38-.36h-.38l-6.47-.05c-.42,0-.63.17-.63.5,0,.24.08.47.25.68l13.13,15.09-12.37,14.28c-.17.15-.25.35-.25.59,0,.36.25.54.75.54Z"/>
      <path class="cls-14" d="M134.95,439.25c6.59,0,11.93-5.19,11.93-11.58s-5.34-11.59-11.93-11.59-11.93,5.19-11.93,11.59,5.34,11.58,11.93,11.58"/>
      <path class="cls-1" d="M313.42,439.25c6.59,0,11.93-5.19,11.93-11.58s-5.34-11.59-11.93-11.59-11.93,5.19-11.93,11.59,5.34,11.58,11.93,11.58"/>
      <path class="cls-15" d="M278.03,519.84c6.59,0,11.93-5.19,11.93-11.58s-5.34-11.59-11.93-11.59-11.93,5.19-11.93,11.59,5.34,11.58,11.93,11.58"/>
    </g>
  </g>
</svg>